<svg width="40" height="40" viewBox="0 0 40 40" fill="none" xmlns="http://www.w3.org/2000/svg">
<rect width="40" height="40" rx="20" fill="#E1E5EB"/>
<path d="M27.1133 27.6993V25.9883C27.1133 25.0808 26.7528 24.2104 26.111 23.5687C25.4693 22.927 24.5989 22.5665 23.6914 22.5665H16.8477C15.9401 22.5665 15.0698 22.927 14.428 23.5687C13.7863 24.2104 13.4258 25.0808 13.4258 25.9883V27.6993M23.6914 15.7227C23.6914 17.6126 22.1594 19.1446 20.2695 19.1446C18.3797 19.1446 16.8477 17.6126 16.8477 15.7227C16.8477 13.8329 18.3797 12.3008 20.2695 12.3008C22.1594 12.3008 23.6914 13.8329 23.6914 15.7227Z" stroke="#788495" stroke-width="1.71094" stroke-linecap="round" stroke-linejoin="round"/>
</svg>
