<svg width="69" height="69" viewBox="0 0 69 69" fill="none" xmlns="http://www.w3.org/2000/svg">
<g id="Group 98">
<g id="Group 90">
<path id="Ellipse 3" d="M34.5 17.25C34.5 13.8383 33.4883 10.5032 31.5929 7.66644C29.6974 4.82968 27.0033 2.6187 23.8513 1.31309C20.6993 0.0074742 17.2309 -0.334134 13.8847 0.331462C10.5385 0.997059 7.46487 2.63997 5.05241 5.05243C2.63996 7.46489 0.997056 10.5386 0.331462 13.8847C-0.334133 17.2309 0.00747418 20.6993 1.31309 23.8514C2.6187 27.0034 4.82967 29.6975 7.66642 31.5929C10.5032 33.4884 13.8383 34.5001 17.25 34.5001L-nan -nanL17.25 34.5001C17.25 24.9732 24.9731 17.25 34.5 17.25L-nan -nanL34.5 17.25Z" fill="#F43F5E"/>
<path id="Ellipse 4" d="M34.5 51.75C34.5 55.1618 33.4883 58.4969 31.5929 61.3336C29.6974 64.1704 27.0033 66.3814 23.8513 67.687C20.6993 68.9926 17.2309 69.3342 13.8847 68.6686C10.5385 68.003 7.46487 66.3601 5.05241 63.9477C2.63996 61.5352 0.997056 58.4615 0.331462 55.1154C-0.334133 51.7692 0.00747418 48.3008 1.31309 45.1487C2.6187 41.9967 4.82967 39.3026 7.66642 37.4072C10.5032 35.5117 13.8383 34.5 17.25 34.5V51.75H34.5Z" fill="#34D399"/>
<path id="Ellipse 5" d="M34.5 17.25C34.5 13.8382 35.5117 10.5031 37.4071 7.66638C39.3026 4.82962 41.9967 2.61864 45.1487 1.31303C48.3007 0.00741317 51.7691 -0.334195 55.1153 0.331401C58.4615 0.996998 61.5351 2.6399 63.9476 5.05237C66.36 7.46483 68.0029 10.5385 68.6685 13.8847C69.3341 17.2309 68.9925 20.6993 67.6869 23.8513C66.3813 27.0033 64.1703 29.6974 61.3336 31.5929C58.4968 33.4883 55.1617 34.5 51.75 34.5L-nan -nanL51.75 34.5C51.75 24.9731 44.0269 17.25 34.5 17.25L-nan -nanL34.5 17.25Z" fill="#55ACEE"/>
<path id="Ellipse 6" d="M34.5 51.75C34.5 55.1618 35.5117 58.4969 37.4071 61.3336C39.3026 64.1704 41.9967 66.3814 45.1487 67.687C48.3007 68.9926 51.7691 69.3342 55.1153 68.6686C58.4615 68.003 61.5351 66.3601 63.9476 63.9477C66.36 61.5352 68.0029 58.4615 68.6685 55.1154C69.3341 51.7692 68.9925 48.3008 67.6869 45.1487C66.3813 41.9967 64.1703 39.3026 61.3336 37.4072C58.4968 35.5117 55.1617 34.5 51.75 34.5L-nan -nanL51.75 34.5C51.75 44.0269 44.0269 51.75 34.5 51.75L-nan -nanL34.5 51.75Z" fill="#F59E0B"/>
</g>
<g id="Group 96">
<path id="Rectangle 4593" d="M17.25 34.5C17.25 24.973 24.9731 17.2499 34.5 17.2499C44.0269 17.2499 51.75 24.973 51.75 34.5C51.75 44.0269 44.0269 51.75 34.5 51.75H17.25V34.5Z" fill="white"/>
<path id="Rectangle 4593 (Stroke)" fill-rule="evenodd" clip-rule="evenodd" d="M19.55 49.45H34.5C42.7567 49.45 49.45 42.7567 49.45 34.5C49.45 26.2433 42.7567 19.5499 34.5 19.5499C26.2433 19.5499 19.55 26.2433 19.55 34.5V49.45ZM34.5 17.2499C24.9731 17.2499 17.25 24.973 17.25 34.5V51.75H34.5C44.0269 51.75 51.75 44.0269 51.75 34.5C51.75 24.973 44.0269 17.2499 34.5 17.2499Z" fill="#2A3346"/>
<path id="W" d="M28.8932 42.5499L25.2998 29.8999H28.2015L30.285 38.687H30.3947L32.6806 29.8999H35.169L37.4549 38.7125H37.5646L39.6481 29.8999H42.5498L38.948 42.5499H36.3584L33.9796 34.2807H33.8784L31.4912 42.5499H28.8932Z" fill="#2A3346"/>
</g>
</g>
</svg>
