<svg width="70" height="70" viewBox="0 0 70 70" fill="none" xmlns="http://www.w3.org/2000/svg">
<g id="*">
<path d="M26.7273 70L28.3394 46.4439L8.4 59.642L0 45.4415L21.5515 35.0835L0 24.7255L8.4 10.358L28.3394 23.5561L26.7273 0H43.2727L41.7455 23.5561L61.6848 10.358L70 24.7255L48.5333 35.0835L70 45.4415L61.6848 59.642L41.7455 46.4439L43.2727 70H26.7273Z" fill="#46A7FE"/>
<path d="M26.7273 70L28.3394 46.4439L8.4 59.642L0 45.4415L21.5515 35.0835L0 24.7255L8.4 10.358L28.3394 23.5561L26.7273 0H43.2727L41.7455 23.5561L61.6848 10.358L70 24.7255L48.5333 35.0835L70 45.4415L61.6848 59.642L41.7455 46.4439L43.2727 70H26.7273Z" fill="url(#paint0_linear_48_1727)"/>
</g>
<defs>
<linearGradient id="paint0_linear_48_1727" x1="66.6483" y1="70" x2="2.1101" y2="-0.113042" gradientUnits="userSpaceOnUse">
<stop stop-color="#46A6FF"/>
<stop offset="1" stop-color="#55FFF5"/>
</linearGradient>
</defs>
</svg>
